<mxfile host="drawio-plugin" modified="2021-12-03T23:12:07.052Z" agent="5.0 (Windows NT 6.2; Win64; x64) AppleWebKit/537.36 (KHTML, like Gecko) Chrome/89.0.4389.114 Safari/537.36" etag="QoCF84WKqF1DmGzg5MfZ" version="14.7.4" type="embed"><diagram id="23iRSUPoRavnBvh4doch" name="Page-1"><mxGraphModel dx="1662" dy="722" grid="1" gridSize="10" guides="1" tooltips="1" connect="1" arrows="1" fold="1" page="1" pageScale="1" pageWidth="827" pageHeight="1169" math="0" shadow="0"><root><mxCell id="0"/><mxCell id="1" parent="0"/><mxCell id="2" value="CRON SCRIPT !&lt;br&gt;exucution: 1. day of a month" style="text;html=1;strokeColor=#6F0000;fillColor=#a20025;align=center;verticalAlign=middle;whiteSpace=wrap;rounded=0;fontColor=#ffffff;" parent="1" vertex="1"><mxGeometry x="10" width="210" height="40" as="geometry"/></mxCell><mxCell id="5" value="" style="edgeStyle=orthogonalEdgeStyle;rounded=0;orthogonalLoop=1;jettySize=auto;html=1;" parent="1" source="6" target="8" edge="1"><mxGeometry relative="1" as="geometry"/></mxCell><mxCell id="6" value="Actions on first day of a month" style="rounded=1;whiteSpace=wrap;html=1;fontSize=12;glass=0;strokeWidth=1;shadow=0;" parent="1" vertex="1"><mxGeometry x="270" y="60" width="195" height="40" as="geometry"/></mxCell><mxCell id="20" style="edgeStyle=orthogonalEdgeStyle;rounded=0;orthogonalLoop=1;jettySize=auto;html=1;exitX=0.5;exitY=1;exitDx=0;exitDy=0;entryX=0.5;entryY=0;entryDx=0;entryDy=0;" parent="1" source="8" target="19" edge="1"><mxGeometry relative="1" as="geometry"/></mxCell><mxCell id="8" value="Calculate all open Orders of a single buyer to get total amount&amp;nbsp;&lt;br&gt;select * blmkt_links where status=20 (active) AND paid_until=today&amp;nbsp;" style="whiteSpace=wrap;html=1;rounded=1;shadow=0;strokeWidth=1;glass=0;" parent="1" vertex="1"><mxGeometry x="138.75" y="130" width="457.5" height="50" as="geometry"/></mxCell><mxCell id="9" value="" style="edgeStyle=orthogonalEdgeStyle;rounded=0;orthogonalLoop=1;jettySize=auto;html=1;" parent="1" source="11" target="13" edge="1"><mxGeometry relative="1" as="geometry"/></mxCell><mxCell id="11" value="Update subscription price to total amount&lt;br&gt;via&lt;br&gt;api/Subscriptions/ChangeRecurringPrice" style="whiteSpace=wrap;html=1;rounded=1;shadow=0;strokeWidth=1;glass=0;" parent="1" vertex="1"><mxGeometry x="234.38" y="315" width="265.62" height="60" as="geometry"/></mxCell><mxCell id="25" style="edgeStyle=orthogonalEdgeStyle;rounded=0;orthogonalLoop=1;jettySize=auto;html=1;exitX=0.5;exitY=1;exitDx=0;exitDy=0;entryX=0.5;entryY=0;entryDx=0;entryDy=0;" parent="1" source="13" target="24" edge="1"><mxGeometry relative="1" as="geometry"/></mxCell><mxCell id="13" value="Initiate the subcription payment&lt;br&gt;via&amp;nbsp;&lt;br&gt;api/Subscriptions/DoRecurringPayment" style="whiteSpace=wrap;html=1;rounded=1;shadow=0;strokeWidth=1;glass=0;" parent="1" vertex="1"><mxGeometry x="232" y="413" width="270" height="70" as="geometry"/></mxCell><mxCell id="17" value="&lt;font size=&quot;1&quot;&gt;&lt;b style=&quot;font-size: 20px&quot;&gt;BUYER&lt;/b&gt;&lt;/font&gt;" style="text;html=1;strokeColor=none;fillColor=none;align=center;verticalAlign=middle;whiteSpace=wrap;rounded=0;" parent="1" vertex="1"><mxGeometry x="275" width="180" height="50" as="geometry"/></mxCell><mxCell id="21" style="edgeStyle=orthogonalEdgeStyle;rounded=0;orthogonalLoop=1;jettySize=auto;html=1;exitX=0.5;exitY=1;exitDx=0;exitDy=0;entryX=0.5;entryY=0;entryDx=0;entryDy=0;" parent="1" source="19" target="11" edge="1"><mxGeometry relative="1" as="geometry"/></mxCell><mxCell id="19" value="Insert to blmkt_orders, blmkt_order_details" style="whiteSpace=wrap;html=1;rounded=1;shadow=0;strokeWidth=1;glass=0;" parent="1" vertex="1"><mxGeometry x="234.38" y="220" width="266.25" height="60" as="geometry"/></mxCell><mxCell id="29" style="edgeStyle=orthogonalEdgeStyle;rounded=0;orthogonalLoop=1;jettySize=auto;html=1;exitX=0.5;exitY=1;exitDx=0;exitDy=0;entryX=0;entryY=0.5;entryDx=0;entryDy=0;" parent="1" source="24" target="8" edge="1"><mxGeometry relative="1" as="geometry"><Array as="points"><mxPoint x="367" y="660"/><mxPoint x="80" y="660"/><mxPoint x="80" y="155"/></Array></mxGeometry></mxCell><mxCell id="24" value="All other things should be handled by IPN Handler" style="whiteSpace=wrap;html=1;rounded=1;shadow=0;strokeWidth=1;glass=0;" parent="1" vertex="1"><mxGeometry x="218.44" y="535" width="297.5" height="50" as="geometry"/></mxCell><mxCell id="27" value="Repeat until &lt;br&gt;no buyer left" style="text;html=1;strokeColor=none;fillColor=none;align=center;verticalAlign=middle;whiteSpace=wrap;rounded=0;" parent="1" vertex="1"><mxGeometry x="354" y="610" width="120" height="30" as="geometry"/></mxCell><mxCell id="30" value="" style="endArrow=classic;html=1;" parent="1" edge="1"><mxGeometry width="50" height="50" relative="1" as="geometry"><mxPoint x="80" y="350" as="sourcePoint"/><mxPoint x="80" y="260" as="targetPoint"/></mxGeometry></mxCell><mxCell id="31" value="" style="endArrow=classic;html=1;" parent="1" edge="1"><mxGeometry width="50" height="50" relative="1" as="geometry"><mxPoint x="80" y="350" as="sourcePoint"/><mxPoint x="80" y="260" as="targetPoint"/><Array as="points"><mxPoint x="80" y="350"/></Array></mxGeometry></mxCell><mxCell id="32" value="" style="endArrow=classic;html=1;" parent="1" edge="1"><mxGeometry width="50" height="50" relative="1" as="geometry"><mxPoint x="80" y="503" as="sourcePoint"/><mxPoint x="80" y="413" as="targetPoint"/><Array as="points"><mxPoint x="80" y="503"/></Array></mxGeometry></mxCell><mxCell id="36" value="" style="endArrow=classic;html=1;" parent="1" edge="1"><mxGeometry width="50" height="50" relative="1" as="geometry"><mxPoint x="225" y="660" as="sourcePoint"/><mxPoint x="140" y="660" as="targetPoint"/></mxGeometry></mxCell><mxCell id="37" value="" style="endArrow=classic;html=1;" parent="1" edge="1"><mxGeometry width="50" height="50" relative="1" as="geometry"><mxPoint x="355" y="660" as="sourcePoint"/><mxPoint x="270" y="660" as="targetPoint"/><Array as="points"/></mxGeometry></mxCell></root></mxGraphModel></diagram></mxfile>